<svg xmlns="http://www.w3.org/2000/svg" enable-background="new 0 0 3800 3000" viewBox="0 0 3800 3000"><path fill="#f4e4f0" d="M3110.17,960.05C1747.16-553.04,400.09,683.7,356.58,1417.46c-34.1,575.16,255.91,902.36,959.28,814.37   c1285.22-160.78,1469.91,271.4,1765.69,395.59C3377.32,2751.6,3713.69,1630.02,3110.17,960.05z" class="colorf4e9e4 svgShape"/><path fill="#bd2e95" d="M2641.57,2004.79h203.64c0,0,13.94-72.69-46.31-83.3c-60.25-10.61-129.76-17.9-134.6,27.47       C2663.2,1959.14,2633.99,1942.07,2641.57,2004.79z" class="colorf07364 svgShape"/><path fill="#f1a7dc" d="M2711.13,1934.66c-3.98,3.43-10.17,4.02-14.73,1.4c-1.68,4.02-7.11,4.78-11.37,3.88         c-7.67-1.63-14.46-6.78-18.36-13.59c-3.9-6.81-4.91-15.15-3.04-22.76c1.56-6.37,5.46-12.56,11.53-15.04         c6.07-2.48,14.27,0.09,16.41,6.29c-1.37-10.67,5.72-21.27,14.79-27.07c5.46-3.49,11.97-5.97,18.36-4.91         c4.41,0.73,8.46,3.13,11.56,6.36c4.63,4.8,7.24,11.49,7.09,18.16c-0.15,6.67-3.07,13.23-7.91,17.82         c2.86-1.48,6.15-2.73,9.3-3.35c3.15-0.62,6.64-0.28,9.21,1.66c1.89,1.43,3.1,3.57,4.07,5.73c2.62,5.85,3.8,12.71,1.44,18.67         c-2.18,5.52-7.11,9.55-12.43,12.17c-10.28,5.07-23.44,5.33-32.65-1.49c-0.79-0.58-1.58-1.27-1.86-2.21         C2712.27,1935.47,2710.16,1934.81,2711.13,1934.66z" class="colorf1ada7 svgShape"/><path fill="#bd2e95" d="M2685.03,1940.96c-0.07,0-0.14-0.01-0.21-0.02c-7.82-1.67-14.94-6.93-19.03-14.08         c-3.97-6.93-5.11-15.5-3.15-23.51c1.84-7.51,6.38-13.39,12.14-15.74c2.38-0.97,5.16-1.25,7.85-0.79         c0.56,0.09,0.93,0.62,0.83,1.18c-0.09,0.56-0.62,0.93-1.18,0.84c-2.32-0.4-4.71-0.16-6.74,0.67         c-5.16,2.1-9.24,7.46-10.93,14.33c-1.84,7.51-0.77,15.53,2.94,22.01c3.81,6.65,10.42,11.55,17.68,13.1         c0.55,0.12,0.9,0.66,0.79,1.21C2685.93,1940.63,2685.51,1940.96,2685.03,1940.96z" class="colorf07364 svgShape"/><path fill="#bd2e95" d="M2718.94,1936.15c-0.33,0-0.65-0.16-0.85-0.45c-0.17-0.25-17.23-25.23-34.42-26.46        c-0.56-0.04-0.99-0.53-0.95-1.09c0.04-0.56,0.53-0.98,1.09-0.95c18.19,1.3,35.25,26.29,35.97,27.35        c0.32,0.47,0.19,1.1-0.27,1.42C2719.33,1936.1,2719.13,1936.15,2718.94,1936.15z" class="colorf07364 svgShape"/><path fill="#f0bbe1" d="M2828.52,1907.94c-1.53-2.8-3.39-5.55-6.08-7.27c-3.65-2.33-8.38-2.43-12.55-1.25        c-4.17,1.17-8.46,3.21-12.14,5.49c6.02-6.68,9.24-15.81,8.74-24.79c-0.5-8.98-4.73-17.69-11.46-23.65        c-4.52-4-10.21-6.79-16.22-7.31c-8.71-0.75-17.19,3.27-24.16,8.55c-11.57,8.76-19.97,23.75-16.98,37.95        c-3.53-8.1-14.82-10.68-22.72-6.71c-7.9,3.98-12.48,12.71-13.9,21.43c-1.7,10.44,0.55,21.53,6.51,30.26        c5.96,8.73,15.63,14.93,26.12,16.31c5.82,0.76,13.04-0.84,14.86-6.42c6.41,3.03,14.65,1.58,19.64-3.46        c-1.28,0.31,1.62,0.97,2.1,2.2c0.48,1.23,1.61,2.07,2.73,2.77c13.1,8.19,30.76,6.42,44.03-1.48        c6.87-4.09,13.06-10.04,15.4-17.68C2834.98,1924.61,2832.67,1915.52,2828.52,1907.94z" class="colorf0bebb svgShape"/><path fill="#bd2e95" d="M2800.46 1863.65c-.28 0-.56-.12-.76-.34-20.98-23.61-43.45-5.59-44.39-4.81-.43.36-1.08.3-1.44-.14-.36-.43-.3-1.08.14-1.44.25-.2 24.91-20.06 47.22 5.03.37.42.34 1.07-.08 1.44C2800.94 1863.56 2800.7 1863.65 2800.46 1863.65zM2736.4 1958.14c-.96 0-1.92-.06-2.85-.19-10.59-1.39-20.62-7.65-26.83-16.74-6.02-8.81-8.45-20.11-6.68-31 1.65-10.17 7.05-18.46 14.44-22.18 4.54-2.29 10.21-2.58 15.17-.79 2.57.93 4.76 2.36 6.43 4.17-.3-5.62.95-11.5 3.71-17.24.25-.51.86-.72 1.36-.48.51.24.72.85.48 1.36-3.3 6.87-4.33 13.93-2.97 20.39.11.51-.19 1.02-.69 1.18-.5.16-1.04-.08-1.25-.56-1.37-3.13-4.13-5.58-7.77-6.9-4.44-1.6-9.5-1.34-13.55.7-6.81 3.43-11.8 11.16-13.35 20.69-1.69 10.38.63 21.14 6.35 29.52 5.88 8.62 15.38 14.55 25.41 15.87 5.49.72 12.14-.76 13.76-5.72.17-.54.75-.83 1.29-.65.54.18.83.75.65 1.29C2747.83 1956.02 2741.99 1958.14 2736.4 1958.14zM2755.89 1958.41c-.52 0-.97-.4-1.02-.93-3.8-40.33 10.67-61.75 11.29-62.65.32-.46.96-.58 1.42-.26.46.32.58.96.26 1.42-.15.21-14.66 21.76-10.93 61.29.05.56-.36 1.06-.92 1.11C2755.96 1958.41 2755.92 1958.41 2755.89 1958.41z" class="colorf07364 svgShape"/><path fill="#bd2e95" d="M2792.94 1926.28c-.18 0-.36-.05-.53-.15-14.94-9.02-34.78-1.88-34.98-1.81-.53.19-1.12-.08-1.31-.6-.2-.53.07-1.12.6-1.31.85-.31 20.95-7.57 36.75 1.97.48.29.64.92.35 1.4C2793.62 1926.11 2793.29 1926.28 2792.94 1926.28zM2754.89 1940.96c-.33 0-.65-.16-.85-.45-.15-.22-15.17-22.39-32.36-23.62-.56-.04-.99-.53-.95-1.09.04-.56.53-.98 1.09-.95 18.19 1.3 33.28 23.58 33.91 24.52.31.47.19 1.1-.28 1.42C2755.28 1940.9 2755.09 1940.96 2754.89 1940.96zM2842.63 1922.7c-.56 0-1.01-.45-1.02-1-.55-31.53-23.7-34.8-24.68-34.92-.56-.07-.96-.58-.89-1.14.07-.56.59-.95 1.14-.89.26.03 25.9 3.56 26.47 36.92.01.56-.44 1.03-1 1.04C2842.64 1922.7 2842.64 1922.7 2842.63 1922.7z" class="colorf07364 svgShape"/><path fill="#f294d8" d="M2807.75,1954.99h-133.61c-33.47,0-57.63,32.04-48.43,64.22l32.83,114.81h159.87l37.19-112.9     C2866.32,1988.54,2842.05,1954.99,2807.75,1954.99z" class="colorf29b94 svgShape"/><path fill="#bd2e95" d="M2832.47,2022.25c-0.15,0-0.29-0.01-0.45-0.02c-2.98-0.24-5.21-2.86-4.97-5.85     c2.2-27.2-19.84-32.81-27.08-34.66c-2-0.51-3.21-0.82-4.4-2.01c-2.12-2.12-2.12-5.55,0-7.67c1.66-1.66,4.14-2.02,6.14-1.08     c0.24,0.07,0.56,0.14,0.94,0.24c31.54,8.03,36.56,29.47,35.22,46.05C2837.65,2020.1,2835.27,2022.25,2832.47,2022.25z" class="colorf07364 svgShape"/><path fill="#f449c4" d="M2853.66,2112.9h-213.34c-1.64,0-2.97-1.33-2.97-2.97c0-1.64,1.33-2.97,2.97-2.97h213.34      c1.64,0,2.97,1.33,2.97,2.97C2856.63,2111.58,2855.3,2112.9,2853.66,2112.9z" class="colorf45d49 svgShape"/><rect width="1034.19" height="553.74" x="2273.36" y="2112.9" fill="#f1a7dc" class="colorf1ada7 svgShape"/><rect width="104.12" height="83.76" x="2320.04" y="2665.13" fill="#f294d8" class="colorf29b94 svgShape"/><rect width="104.12" height="83.76" x="3168.1" y="2665.13" fill="#f294d8" class="colorf29b94 svgShape"/><path fill="#f294d8" d="M3171.53 2366.47h-749.02v-196.25h749.02V2366.47zM2433.07 2355.92h727.91v-175.14h-727.91V2355.92zM3171.53 2609.28h-749.02v-196.25h749.02V2609.28zM2433.07 2598.72h727.91v-175.13h-727.91V2598.72z" class="colorf29b94 svgShape"/><rect width="272.72" height="47.5" x="2660.66" y="2175.72" fill="#f294d8" class="colorf29b94 svgShape"/><rect width="272.72" height="47.5" x="2660.66" y="2418.53" fill="#f294d8" class="colorf29b94 svgShape"/><path fill="#f449c4" d="M2190.13,1397.22c-35.4-64.28-76.36-122.47-123.85-170.35c18.95-25.19,30.3-56.2,15.15-89.52    c-29.29-64.4-85.19-39.98-142.99-4.04c-16.4,10.28-32.91,21.39-49.07,31.72c-72.95,46.63-223.48-36.24-223.48-36.24s0,0-0.06,0    c-3.15-2.08-56.64-37.28-73.34,71.32c-141.52,25.58-234.32,123.24-364.66,237.42c-168.24,147.44-342.71,337.9-367.6,509.88    c-26.02,179.88,92.32,265.96,211.13,307.19c3.86,27.86,9.27,55.07,16.46,81.39H2411.9c0,0-1.13-34.02-5.77-90.69    c40.65-28.11,78.29-84.35,85.4-195.21C2502.31,1882.18,2319.48,1584.86,2190.13,1397.22z" class="colorf45d49 svgShape"/><path fill="#300406" d="M2233.72 1886.11c-2.25 0-4.36-1.41-5.13-3.66l-81.6-237.15c-.98-2.83.53-5.92 3.37-6.9 2.82-.96 5.92.53 6.9 3.37l81.6 237.15c.97 2.83-.53 5.92-3.37 6.9C2234.9 1886.01 2234.3 1886.11 2233.72 1886.11zM1555.88 1424.51c-.13 0-.26-.01-.39-.01-2.99-.21-5.24-2.81-5.03-5.8 6.31-88.01-13.4-126.68-31.04-143.63-18.57-17.83-38.33-15.85-39.17-15.75-3.03.34-5.66-1.79-6.01-4.76-.35-2.96 1.75-5.65 4.72-6.02 1.04-.12 25.34-2.83 47.71 18.44 28.3 26.91 39.95 78.21 34.62 152.49C1561.08 1422.32 1558.7 1424.51 1555.88 1424.51zM1610.83 1979.27c-1 0-2.01-.28-2.91-.85-2.53-1.61-3.27-4.97-1.66-7.5 132.61-207.84 107.54-620.4 107.27-624.55-.19-2.99 2.07-5.57 5.06-5.77 3.03-.16 5.57 2.08 5.77 5.06.27 4.18 25.55 420.29-108.95 631.09C1614.38 1978.39 1612.62 1979.27 1610.83 1979.27zM1993.38 2042.8c-1.12 0-2.24-.34-3.21-1.05-181.51-133.29-54.36-674.03-48.86-696.98.7-2.91 3.64-4.7 6.54-4.01 2.91.7 4.71 3.63 4.01 6.54-1.33 5.55-131 556.66 44.73 685.7 2.42 1.78 2.94 5.17 1.16 7.59C1996.7 2042.03 1995.05 2042.8 1993.38 2042.8z" class="color042c30 svgShape"/><path fill="#fbace5" d="M1644.72,2111.53c0,0,85.38-300.82,97.4-513.42c12.03-212.6-30.61-332.32-30.61-332.32    s138.98,47.14,245.18-25.57c0,0-160.08,428.72-37.69,767.5C2041.38,2346.51,1626.37,2252.04,1644.72,2111.53z" class="coloracd9fb svgShape"/><path fill="#f1a7dc" d="M3131.46,1274.54h-313.53c-22.11,0-40.03,17.92-40.03,40.04v162.64c0,22.11,17.92,40.04,40.03,40.04h313.53     c22.11,0,40.03-17.92,40.03-40.04v-162.64C3171.5,1292.46,3153.57,1274.54,3131.46,1274.54z" class="colorf1ada7 svgShape"/><rect width="393.59" height="36.5" x="2777.9" y="1435.7" fill="#ffffff" class="coloreff0f9 svgShape"/><rect width="74.92" height="6.9" x="3076.09" y="1410.55" fill="#ed7ece" class="colored897e svgShape"/><rect width="74.92" height="6.9" x="2992.63" y="1410.55" fill="#ed7ece" class="colored897e svgShape"/><rect width="74.92" height="6.9" x="2909.16" y="1410.55" fill="#ed7ece" class="colored897e svgShape"/><path fill="#ed7ece" d="M2863.53,1322c0,14.51-11.76,26.27-26.26,26.27S2811,1336.51,2811,1322c0-14.51,11.76-26.26,26.26-26.26      S2863.53,1307.49,2863.53,1322z" class="colored897e svgShape"/><path fill="#f72fbf" d="M2896.92,1322c0,14.51-11.76,26.27-26.26,26.27s-26.26-11.76-26.26-26.27c0-14.51,11.76-26.26,26.26-26.26      S2896.92,1307.49,2896.92,1322z" class="colorf7472f svgShape"/><path fill="#ffffff" d="M2880.42 1323.36c.62.81.93 1.82.93 3.03 0 1.66-.64 2.95-1.92 3.85-1.28.91-3.14 1.36-5.59 1.36h-9.54v-19.19h8.99c2.27 0 4.01.44 5.24 1.33 1.22.89 1.84 2.11 1.84 3.66 0 .95-.22 1.79-.66 2.52-.44.73-1.04 1.3-1.81 1.7C2878.96 1321.96 2879.8 1322.54 2880.42 1323.36zM2867.87 1315.2v5.29h5.04c1.24 0 2.2-.22 2.86-.67.67-.45 1-1.1 1-1.96 0-.88-.33-1.54-1-1.99-.67-.45-1.62-.67-2.86-.67H2867.87zM2877.77 1326.03c0-1.85-1.38-2.77-4.14-2.77h-5.76v5.54h5.76C2876.38 1328.8 2877.77 1327.88 2877.77 1326.03zM2897.61 1327.15h-9.59l-1.89 4.44h-3.67l8.63-19.19h3.51l8.66 19.19h-3.73L2897.61 1327.15zM2896.43 1324.36l-3.62-8.39-3.59 8.39H2896.43zM2922.75 1312.41v19.19h-2.93l-10.58-12.99v12.99h-3.54v-19.19h2.93l10.58 12.99v-12.99H2922.75zM2934.51 1323.56l-3.04 3.13v4.91h-3.56v-19.19h3.56v9.84l9.48-9.84h4l-8.06 8.58 8.55 10.61h-4.17L2934.51 1323.56zM2959.08 1330.59c-1.56-.85-2.79-2.02-3.67-3.52-.89-1.5-1.33-3.19-1.33-5.07 0-1.88.45-3.57 1.34-5.07.9-1.5 2.12-2.67 3.69-3.52 1.56-.85 3.31-1.27 5.25-1.27 1.57 0 3.01.27 4.3.82 1.3.55 2.39 1.34 3.29 2.39l-2.3 2.17c-1.39-1.5-3.1-2.25-5.13-2.25-1.32 0-2.5.29-3.54.86-1.04.58-1.86 1.38-2.44 2.4s-.88 2.18-.88 3.48c0 1.3.29 2.46.88 3.48.58 1.02 1.4 1.82 2.44 2.4 1.04.58 2.22.86 3.54.86 2.03 0 3.74-.76 5.13-2.27l2.3 2.19c-.9 1.04-2 1.84-3.3 2.38-1.31.55-2.75.82-4.32.82C2962.39 1331.87 2960.64 1331.44 2959.08 1330.59zM2987.41 1327.15h-9.59l-1.89 4.44h-3.67l8.63-19.19h3.51l8.66 19.19h-3.73L2987.41 1327.15zM2986.23 1324.36l-3.62-8.39-3.59 8.39H2986.23zM3008.05 1331.59l-3.92-5.62c-.16.02-.41.03-.74.03h-4.33v5.59h-3.56v-19.19h7.89c1.66 0 3.11.28 4.34.82s2.18 1.33 2.84 2.36c.66 1.02.99 2.24.99 3.65 0 1.44-.35 2.69-1.06 3.73-.7 1.04-1.71 1.82-3.03 2.33l4.41 6.3H3008.05zM3006.76 1316.41c-.8-.66-1.98-.99-3.54-.99h-4.17v7.65h4.17c1.55 0 2.73-.33 3.54-1 .8-.67 1.21-1.61 1.21-2.84C3007.97 1318.01 3007.57 1317.07 3006.76 1316.41zM3015.53 1312.41h8.39c2.05 0 3.87.4 5.46 1.19 1.59.79 2.82 1.92 3.7 3.37.88 1.45 1.32 3.13 1.32 5.03 0 1.9-.44 3.58-1.32 5.03-.88 1.45-2.11 2.58-3.7 3.37-1.59.79-3.41 1.19-5.46 1.19h-8.39V1312.41zM3023.76 1328.58c1.41 0 2.65-.27 3.71-.81 1.07-.54 1.89-1.31 2.47-2.3s.86-2.15.86-3.47c0-1.32-.29-2.47-.86-3.47s-1.4-1.76-2.47-2.3c-1.07-.54-2.31-.81-3.71-.81h-4.66v13.16H3023.76z" class="coloreff0f9 svgShape"/><path fill="#300406" d="M3171.49,1441.12h-231.4c-3,0-5.43-2.43-5.43-5.43c0-3,2.43-5.43,5.43-5.43h231.4c3,0,5.43,2.43,5.43,5.43     C3176.92,1438.69,3174.49,1441.12,3171.49,1441.12z" class="color042c30 svgShape"/><path fill="#300406" d="M3129.76,1522.68h-48.1c-3,0-5.43-2.43-5.43-5.43c0-3,2.43-5.43,5.43-5.43h48.1     c9.96,0,19.26-3.96,26.17-11.14c6.54-6.8,10.14-15.73,10.14-25.17v-120.84c0-3,2.43-5.43,5.43-5.43s5.43,2.43,5.43,5.43v120.84     c0,12.25-4.68,23.87-13.17,32.69C3154.77,1517.54,3142.7,1522.68,3129.76,1522.68z" class="color042c30 svgShape"/><g><path fill="#fbace5" d="M1003.32,871.06h-403c-29.61,0-53.61,24-53.61,53.61v551.5c0,29.61,24,53.61,53.61,53.61h403     c29.61,0,53.61-24,53.61-53.61v-551.5C1056.93,895.06,1032.93,871.06,1003.32,871.06z" class="coloracd9fb svgShape"/><path fill="#ffffff" d="M995.85,1294.27H607.8c-24.93,0-45.14,20.21-45.14,45.14v127.87c0,24.93,20.21,45.14,45.14,45.14h388.05     c24.93,0,45.14-20.21,45.14-45.14v-127.87C1040.99,1314.48,1020.78,1294.27,995.85,1294.27z" class="coloreff0f9 svgShape"/><path fill="#300406" d="M642.41,1059.83c-2.05,0-3.88-0.45-5.49-1.41c-4.53-2.72-6.2-8.76-5.08-18.49      c2.51-21.91,9.44-37.45,20.57-46.21c10.66-8.38,21.24-7.16,21.68-7.11c2.04,0.26,3.49,2.12,3.24,4.16      c-0.25,2.04-2.11,3.46-4.14,3.24c-1.23-0.13-28.3-2.46-33.94,46.77c-1.03,8.98,0.89,10.88,1.5,11.24      c5.12,3.07,24.83-10.57,40.66-21.53c26.71-18.49,56.99-39.47,80.41-36.35c2.04,0.27,3.48,2.14,3.21,4.18      c-0.27,2.04-2.16,3.49-4.18,3.21c-20.56-2.69-50.86,18.25-75.19,35.09C666.72,1049.73,652.13,1059.83,642.41,1059.83z" class="color042c30 svgShape"/><polygon fill="#5b2629" points="657.24 965.38 828.42 929.63 883.12 924.19 697.1 965.38" class="color384d54 svgShape"/><polygon fill="#bd2e95" points="697.1 965.38 754.24 1270.98 972.14 1212.52 883.12 924.19" class="colorf07364 svgShape"/><polygon fill="#f449c4" points="697.1 965.38 657.24 965.38 690.46 1259.02 714.38 1247.06 754.24 1270.98" class="colorf45d49 svgShape"/><circle cx="774.39" cy="982.56" r="7.75" fill="#f72fbf" class="colorf7472f svgShape"/><circle cx="836.17" cy="967.05" r="7.75" fill="#f72fbf" class="colorf7472f svgShape"/><path fill="#300406" d="M774.39,986.28c-1.54,0-2.98-0.96-3.52-2.5c-0.68-1.94,0.35-4.07,2.3-4.74      c11.39-3.97,11.78-31.06,12.19-59.75c0.53-36.89,1.13-78.71,24.16-96.68c13.61-10.62,24.28-8.79,30.84-5.39      c23.71,12.32,34,65.59,32.31,99.3c-2.34,46.83-39.15,52.49-39.53,52.54c-2.03,0.29-3.92-1.14-4.2-3.18      c-0.28-2.03,1.13-3.91,3.16-4.2c1.28-0.19,31.1-5.04,33.12-45.53c1.58-31.59-8.43-81.99-28.31-92.32      c-6.81-3.53-14.27-2.02-22.81,4.65c-20.21,15.77-20.79,55.69-21.29,90.9c-0.47,32.73-0.88,61-17.2,66.68      C775.21,986.22,774.8,986.28,774.39,986.28z" class="color042c30 svgShape"/><polygon fill="#ed7ece" points="734.31 1023.17 774.39 1138.23 883.12 996.73" class="colored897e svgShape"/><g fill="none"><path fill="#9d69fd" d="M619.26 1378.43h172.96c4.77 0 8.64-3.87 8.64-8.64 0-4.77-3.87-8.64-8.64-8.64H619.26c-4.77 0-8.64 3.87-8.64 8.64C610.62 1374.56 614.49 1378.43 619.26 1378.43zM619.26 1420.94h70.73c4.77 0 8.64-3.87 8.64-8.64 0-4.77-3.87-8.64-8.64-8.64h-70.73c-4.77 0-8.64 3.87-8.64 8.64C610.62 1417.07 614.49 1420.94 619.26 1420.94zM792.22 1403.65h-70.73c-4.77 0-8.64 3.87-8.64 8.64 0 4.77 3.87 8.64 8.64 8.64h70.73c4.77 0 8.64-3.87 8.64-8.64C800.87 1407.52 797 1403.65 792.22 1403.65zM732.85 1446.16H619.26c-4.77 0-8.64 3.87-8.64 8.64s3.87 8.64 8.64 8.64h113.59c4.77 0 8.64-3.87 8.64-8.64S737.62 1446.16 732.85 1446.16z" class="color69c1fd svgShape"/></g><path fill="#9d69fd" d="M1040.99,1355.3c-3,0-5.43-2.43-5.43-5.43v-5.33c0-24.73-20.12-44.85-44.85-44.85H741.49     c-3,0-5.43-2.43-5.43-5.43c0-3,2.43-5.43,5.43-5.43h249.22c30.71,0,55.7,24.99,55.7,55.7v5.33     C1046.41,1352.87,1043.98,1355.3,1040.99,1355.3z" class="color69c1fd svgShape"/><g fill="none"><path fill="#fbace5" d="M930.38,1483.96l-4.93-3.35c-2.88-1.96-70.54-48.68-71.13-102.09c-0.17-15.87,4.86-27.01,14.95-33.09      c17.5-10.55,44.35-0.89,57.39,5c10.65-13.97,33.91-19.79,51.11-15.16c21.23,5.72,30.79,24.37,25.56,49.89      c-10.01,48.87-65.9,93.25-68.27,95.12L930.38,1483.96z M888.22,1356.96c-4.05,0-7.7,0.7-10.55,2.42      c-4.8,2.89-7.17,9.27-7.07,18.97c0.41,37.51,44.16,73.88,59.09,85.21c13.25-11.47,50.45-46.28,57.69-81.66      c2.41-11.75,1.96-26.65-13.84-30.9c-13.77-3.72-32.51,2.96-35.79,12.74l-3.08,9.17l-8.51-4.6      C919.5,1364.7,901.7,1356.96,888.22,1356.96z" class="coloracd9fb svgShape"/></g></g><g><path fill="#fbace5" d="M2828.23,285.95h-476.25c-34.99,0-63.35,28.36-63.35,63.35v651.74c0,34.99,28.36,63.35,63.35,63.35h476.25     c34.99,0,63.35-28.36,63.35-63.35V349.3C2891.58,314.31,2863.22,285.95,2828.23,285.95z" class="coloracd9fb svgShape"/><path fill="#ffffff" d="M2819.4,786.08h-458.58c-29.46,0-53.34,23.88-53.34,53.34v151.11c0,29.46,23.88,53.34,53.34,53.34h458.58     c29.46,0,53.34-23.88,53.34-53.34V839.42C2872.74,809.96,2848.86,786.08,2819.4,786.08z" class="coloreff0f9 svgShape"/><path fill="#9d69fd" d="M2374.36 885.54h204.4c5.64 0 10.21-4.57 10.21-10.22 0-5.64-4.57-10.21-10.21-10.21h-204.4c-5.64 0-10.21 4.57-10.21 10.21C2364.15 880.96 2368.72 885.54 2374.36 885.54zM2374.36 935.77h83.58c5.64 0 10.21-4.57 10.21-10.21 0-5.64-4.57-10.22-10.21-10.22h-83.58c-5.64 0-10.21 4.57-10.21 10.22C2364.15 931.2 2368.72 935.77 2374.36 935.77zM2578.76 915.34h-83.58c-5.64 0-10.21 4.57-10.21 10.22 0 5.64 4.57 10.21 10.21 10.21h83.58c5.64 0 10.21-4.57 10.21-10.21C2588.98 919.92 2584.4 915.34 2578.76 915.34zM2508.6 965.58h-134.23c-5.64 0-10.21 4.57-10.21 10.22s4.57 10.21 10.21 10.21h134.23c5.64 0 10.21-4.57 10.21-10.21S2514.24 965.58 2508.6 965.58zM2872.74 857.21c-3 0-5.43-2.43-5.43-5.43v-6.29c0-29.77-24.21-53.98-53.98-53.98h-294.52c-3 0-5.43-2.43-5.43-5.43s2.43-5.43 5.43-5.43h294.52c35.75 0 64.83 29.09 64.83 64.83v6.29C2878.17 854.78 2875.74 857.21 2872.74 857.21z" class="color69c1fd svgShape"/><g fill="none"><path fill="#bd2e95" d="M2741.63,865.11c0,0-80.55-43.68-79.85,20.43c0.64,58.82,79.85,112.8,79.85,112.8s65.95-51.82,77.2-106.77      C2832.13,826.62,2751.84,834.72,2741.63,865.11z" class="colorf07364 svgShape"/></g><g fill="none"><path fill="#ed7ece" d="M2581.63,393.76c0,0,95.87-81.05,128.11-54.03c32.25,27.02-65.36,53.74-109.81,55.49        c0,0,73.48-20.07,70.16-35.01c-1.74-7.84-73.06,35.01-73.06,35.01L2581.63,393.76z" class="colored897e svgShape"/><path fill="#f72fbf" d="M2596.32,393.76c0,0-95.87-81.05-128.11-54.03c-32.25,27.02,65.36,53.74,109.81,55.49        c0,0-73.48-20.07-70.16-35.01c1.74-7.84,73.06,35.01,73.06,35.01L2596.32,393.76z" class="colorf7472f svgShape"/><path fill="#300406" d="M2603.46,405.18c-0.87,0-1.72-0.42-2.25-1.19c-12.85-19-81.21-57.34-81.9-57.73        c-1.31-0.73-1.78-2.38-1.04-3.69c0.73-1.31,2.38-1.77,3.69-1.04c2.86,1.6,70.17,39.37,83.74,59.42        c0.84,1.24,0.51,2.93-0.73,3.77C2604.51,405.03,2603.98,405.18,2603.46,405.18z" class="color042c30 svgShape"/><path fill="#bd2e95" d="M2389.4,429.78v254.32c0,23.2,18.8,42,42,42h315.16c23.2,0,42-18.8,42-42V429.78H2389.4z" class="colorf07364 svgShape"/><path fill="#f449c4" d="M2775.17,393.76h-372.38c-11.88,0-21.52,9.63-21.52,21.52v59.82h415.42v-59.82        C2796.69,403.39,2787.05,393.76,2775.17,393.76z" class="colorf45d49 svgShape"/><rect width="79.89" height="79.89" x="2554.07" y="395.21" fill="#ed7ece" class="colored897e svgShape"/><rect width="70.01" height="250.12" x="2559.01" y="478.87" fill="#f2c4e5" class="colorf2d2c4 svgShape"/><path fill="#300406" d="M2775.44 480.52h-360.81c-3 0-5.43-2.43-5.43-5.43 0-3 2.43-5.43 5.43-5.43h360.81c3 0 5.43 2.43 5.43 5.43C2780.86 478.09 2778.44 480.52 2775.44 480.52zM2742.64 731.52h-36.92c-3 0-5.43-2.43-5.43-5.43s2.43-5.43 5.43-5.43h36.92c12.34 0 23.86-5.53 31.6-15.17 5.82-7.25 8.89-16.01 8.89-25.33V577.93c0-3 2.43-5.43 5.43-5.43s5.43 2.43 5.43 5.43v102.24c0 11.65-4.01 23.05-11.28 32.12C2772.88 724.51 2758.28 731.52 2742.64 731.52z" class="color042c30 svgShape"/></g></g><path fill="#300406" d="M1336.93,2558.26c0,0,943.01-458.78,1158.99-231.51c215.98,227.27-217.39,420.2-217.39,420.2h-895.75    L1336.93,2558.26z" class="color042c30 svgShape"/><path fill="#efa5da" d="M1415.43 2148.1c0 0 40.81 8.91 46.48 26.19 7.57 23.05-26.11 128.46-26.11 128.46l-24.7-4.94v-55.61c0 0-41.64 44.32-57.88 14.32C1353.22 2256.52 1337.69 2198.82 1415.43 2148.1zM2011.03 2613.44l112.22 29.64c0 0-9.18-74.11 74.82-71.99 83.99 2.12 71.29 186.58 71.29 186.58h-258.33V2613.44z" class="colorefbca5 svgShape"/><g><path fill="#300406" d="M2135.96 2694.96c-2.05 0-4-1.16-4.92-3.14-29.95-64.35-3.88-88.33-2.75-89.31 2.25-1.98 5.69-1.75 7.66.49 1.96 2.23 1.76 5.63-.44 7.61-.42.41-20.68 20.67 5.37 76.63 1.26 2.72.09 5.94-2.63 7.21C2137.51 2694.8 2136.73 2694.96 2135.96 2694.96zM2233.71 2725.66c-2.45 0-4.67-1.67-5.27-4.16-.7-2.91 1.09-5.85 4.01-6.54 5.43-1.31 8.74-3.46 9.82-6.4 1.94-5.28-2.68-13.39-4.46-15.81-1.76-2.41-1.25-5.81 1.16-7.58 2.41-1.77 5.79-1.27 7.57 1.14 1.05 1.43 10.18 14.27 5.92 25.95-2.4 6.59-8.29 11.05-17.49 13.26C2234.56 2725.62 2234.13 2725.66 2233.71 2725.66zM2107.38 2675.32c-.38 0-.76-.04-1.14-.12l-51.88-11.06c-2.93-.63-4.8-3.51-4.18-6.44.63-2.93 3.51-4.81 6.44-4.18l51.88 11.06c2.93.63 4.8 3.51 4.18 6.44C2112.14 2673.58 2109.89 2675.32 2107.38 2675.32zM2153.95 2645.2c-2.53 0-4.79-1.77-5.31-4.35-4.33-21.27-1.44-37.14 8.58-47.15 15.35-15.34 41.2-10.29 42.29-10.06 2.94.6 4.83 3.46 4.23 6.4-.6 2.93-3.43 4.83-6.39 4.24l0 0c-.2-.05-21.31-4.09-32.49 7.13-7.26 7.28-9.14 19.83-5.59 37.29.6 2.94-1.3 5.8-4.24 6.4C2154.67 2645.17 2154.31 2645.2 2153.95 2645.2z" class="color042c30 svgShape"/></g><path fill="#5b2629" d="M2037.65,2611.7v135.25h-654.86c0,0-600.26-2.06-431.17-349.62    C1053.25,2188.41,1856.46,2354.98,2037.65,2611.7z" class="color384d54 svgShape"/><g><path fill="#5b2629" d="M2323.02,1838.81h-793.62c-18.8,0-34.78,13.75-37.57,32.34l-73.65,489.97     c-3.46,22.97,14.34,43.64,37.57,43.64h793.62c18.8,0,34.78-13.75,37.57-32.35l73.65-489.97     C2364.04,1859.48,2346.25,1838.81,2323.02,1838.81z" class="color384d54 svgShape"/><path fill="#ed85d0" d="M2372.91,1823.93h-814.49c-19.3,0-35.69,14.11-38.56,33.2l-68.1,453.07l-245.06-26.61     c-29.39,0-53.22,23.83-53.22,53.22l293.26,67.97h253.03h597.55c19.3,0,35.69-14.11,38.56-33.2l75.59-502.85     C2415.01,1845.14,2396.75,1823.93,2372.91,1823.93z" class="coloreda585 svgShape"/><path fill="#300406" d="M2335 1916.13h-273.85c-3 0-5.43-2.43-5.43-5.43s2.43-5.43 5.43-5.43H2335c3 0 5.43 2.43 5.43 5.43S2338 1916.13 2335 1916.13zM2278.53 1952.83h-446.07c-3 0-5.43-2.43-5.43-5.43 0-3 2.43-5.43 5.43-5.43h446.07c3 0 5.43 2.43 5.43 5.43C2283.96 1950.4 2281.53 1952.83 2278.53 1952.83zM1445.02 2361.34c-.41 0-.82-.05-1.22-.14l-230.82-53.16c-2.92-.67-4.74-3.58-4.07-6.51.67-2.92 3.59-4.73 6.51-4.07l225.1 51.85 56.43-376.27c.44-2.96 3.23-5.03 6.17-4.56 2.96.44 5.01 3.21 4.56 6.17l-57.3 382.07c-.22 1.49-1.06 2.83-2.31 3.68C1447.16 2361.02 1446.1 2361.34 1445.02 2361.34zM2278.53 2339.62h-285.15c-3 0-5.43-2.43-5.43-5.43s2.43-5.43 5.43-5.43h285.15c3 0 5.43 2.43 5.43 5.43S2281.53 2339.62 2278.53 2339.62z" class="color042c30 svgShape"/></g><path fill="#300406" d="M3546.42,2757.31H253.58c-5.86,0-10.6-4.75-10.6-10.6s4.75-10.6,10.6-10.6h3292.84    c5.86,0,10.6,4.75,10.6,10.6S3552.27,2757.31,3546.42,2757.31z" class="color042c30 svgShape"/><g><path fill="#bd2e95" d="M1359.07,430.08c0,0-176.43-95.67-174.9,44.75c1.4,128.85,174.9,247.07,174.9,247.07     s144.45-113.5,169.1-233.87C1557.3,345.79,1381.43,363.54,1359.07,430.08z" class="colorf07364 svgShape"/><path fill="#f4e4f0" d="M1508.53,466.37c-0.02,0-0.03,0-0.05,0c-3-0.03-5.4-2.48-5.38-5.48c0.2-21.63-5.79-37.09-17.8-45.94     c-23.64-17.42-63.64-4.9-64.05-4.76c-2.84,0.91-5.91-0.66-6.82-3.51c-0.92-2.85,0.65-5.91,3.5-6.82     c1.85-0.6,45.63-14.36,73.77,6.33c14.99,11.03,22.48,29.47,22.25,54.81C1513.93,463.97,1511.51,466.37,1508.53,466.37z" class="colorf4e9e4 svgShape"/></g><path fill="#300406" d="M1615.44 1193.38c-.54 0-1.09-.08-1.64-.25-2.85-.91-4.44-3.95-3.53-6.8.38-1.21 9.6-29.69 32.51-38.05 12.73-4.65 26.84-2.16 41.92 7.41 39.45 25.03 50.06 22.35 54.05 21.35 1.04-.26 2.13-.54 3.38-.54 3 0 5.43 2.43 5.43 5.43 0 3-2.43 5.43-5.43 5.43-.07.03-.37.12-.72.21-6.21 1.56-19.11 4.84-62.52-22.71-12.07-7.65-22.96-9.81-32.35-6.39-17.87 6.49-25.84 30.89-25.92 31.14C1619.88 1191.9 1617.74 1193.38 1615.44 1193.38zM1987.03 1241.24c-2.3 0-4.43-1.47-5.17-3.77-.91-2.86.66-5.91 3.51-6.82 36.97-11.84 59.82-28.35 66.11-47.77 6.31-19.51-5.87-36.37-5.99-36.54-1.77-2.41-1.27-5.8 1.13-7.58 2.41-1.78 5.79-1.29 7.58 1.1.64.86 15.62 21.33 7.66 46.21-7.45 23.28-32.07 41.76-73.17 54.92C1988.14 1241.16 1987.58 1241.24 1987.03 1241.24z" class="color042c30 svgShape"/><path fill="#300406" d="M2007.51,1268.3c-2.3,0-4.43-1.47-5.17-3.77c-0.91-2.86,0.66-5.91,3.51-6.82    c32.56-10.43,54.83-27.34,66.2-50.27c16.39-33.05,4.38-67.92,4.26-68.27c-1-2.82,0.48-5.92,3.3-6.93    c2.81-1.01,5.92,0.46,6.93,3.28c0.57,1.59,13.7,39.37-4.7,76.61c-12.71,25.72-37.16,44.54-72.68,55.91    C2008.61,1268.21,2008.05,1268.3,2007.51,1268.3z" class="color042c30 svgShape"/><path fill="#300406" d="M2093.62 1406.72c-1.7 0-3.38-.8-4.44-2.3-43.54-61.66-28.92-173.55-28.28-178.29.4-2.97 3.14-5.06 6.1-4.64 2.97.4 5.05 3.14 4.65 6.1-.15 1.12-14.67 112.42 26.39 170.57 1.73 2.45 1.14 5.83-1.3 7.56C2095.79 1406.4 2094.7 1406.72 2093.62 1406.72zM1713.19 1296.63c-.34 0-.68-.03-1.03-.1-61.09-11.75-100.46-32.83-117.04-62.68-13.98-25.17-5.9-46.93-5.55-47.84 1.08-2.8 4.23-4.2 7.01-3.12 2.79 1.07 4.19 4.2 3.13 6.99-.3.81-6.56 18.32 5.05 38.96 14.83 26.39 52.68 46.11 109.46 57.03 2.94.56 4.87 3.41 4.3 6.35C1718.01 1294.82 1715.73 1296.63 1713.19 1296.63z" class="color042c30 svgShape"/><path fill="#300406" d="M1718.95 1264.74c-.42 0-.86-.05-1.29-.15-54.96-13.35-90.82-35.36-106.59-65.42-14.97-28.54-5.71-53.43-5.31-54.47 1.08-2.8 4.22-4.2 7.01-3.12 2.79 1.07 4.19 4.2 3.13 7-.34.92-7.86 21.68 4.9 45.79 14.33 27.06 47.78 47.14 99.42 59.69 2.91.71 4.7 3.64 3.99 6.55C1723.62 1263.08 1721.4 1264.74 1718.95 1264.74zM1140.78 2004.68c-.41 0-.82-.05-1.22-.14-2.92-.68-4.74-3.59-4.07-6.51 16.84-72.95 105.52-90.62 116.41-92.53 137.58-76.31 275.08-412.1 276.46-415.49 1.13-2.78 4.29-4.12 7.07-2.99 2.78 1.13 4.11 4.29 2.99 7.07-5.69 14.01-140.87 344.08-282.1 421.37-.55.3-1.14.5-1.76.6-.92.15-92.58 15.49-108.49 84.41C1145.48 2002.98 1143.24 2004.68 1140.78 2004.68zM1166.48 2269.32c-238.93 0-308.64-213.23-309.33-215.44-.9-2.86.69-5.9 3.55-6.8 2.87-.9 5.91.69 6.8 3.55.69 2.18 71.35 217.42 315.4 207.5 3.07-.08 5.52 2.2 5.64 5.2.12 2.99-2.2 5.52-5.2 5.64C1177.64 2269.21 1172 2269.32 1166.48 2269.32z" class="color042c30 svgShape"/><path fill="#300406" d="M1348.27,2261.94c-2.89,0-5.3-2.28-5.42-5.2c-0.12-2.84-1.98-68.05,66.56-111.34l-239.74-193.78    c-2.33-1.88-2.69-5.3-0.81-7.63c1.89-2.33,5.3-2.69,7.63-0.81l245.77,198.66c1.39,1.13,2.14,2.87,2,4.66    c-0.14,1.79-1.16,3.39-2.71,4.28c-69.48,39.75-67.95,102.87-67.86,105.54c0.11,2.99-2.22,5.51-5.21,5.63    C1348.42,2261.94,1348.34,2261.94,1348.27,2261.94z" class="color042c30 svgShape"/><path fill="#300406" d="M1295.98 2225.95c-.25 0-.51-.02-.77-.05-2.97-.42-5.03-3.17-4.61-6.14.37-2.58 9.92-63.72 92.1-105.76 2.68-1.36 5.94-.31 7.3 2.36 1.36 2.67.31 5.94-2.36 7.3-77.22 39.5-86.22 97.05-86.3 97.62C1300.96 2224 1298.64 2225.95 1295.98 2225.95zM930.38 2072.95c-1.67 0-3.31-.76-4.37-2.21-40.98-55.62-2.2-138.6-.53-142.1 1.29-2.71 4.52-3.85 7.23-2.56 2.71 1.29 3.86 4.53 2.57 7.23-.38.8-37.64 80.63-.53 130.99 1.78 2.41 1.26 5.81-1.15 7.59C932.62 2072.61 931.49 2072.95 930.38 2072.95zM2491.99 2191.01c-1.39 0-2.79-.53-3.85-1.6-2.11-2.13-2.1-5.56.02-7.67 64.51-64.23 41.82-124.94 40.83-127.49-1.09-2.78.28-5.94 3.06-7.03 2.8-1.09 5.94.26 7.03 3.04 1.11 2.81 26.52 69.69-43.27 139.17C2494.76 2190.49 2493.37 2191.01 2491.99 2191.01zM2175.28 1310.16c-1.73 0-3.44-.83-4.49-2.37l-53.17-77.87c-1.69-2.47-1.05-5.85 1.42-7.54 29.37-20.08-1.28-72.45-1.6-72.98-1.53-2.58-.69-5.91 1.89-7.44 2.56-1.54 5.9-.7 7.44 1.88 1.43 2.4 33.38 56.91 2.69 84.16l50.3 73.67c1.69 2.47 1.05 5.85-1.42 7.54C2177.4 1309.86 2176.33 1310.16 2175.28 1310.16zM764.85 1922.82c-.69 0-1.4-.14-2.09-.42l-102.49-42.7c-2.77-1.15-4.07-4.33-2.92-7.1 1.15-2.76 4.32-4.08 7.1-2.92l102.49 42.7c2.77 1.15 4.07 4.33 2.92 7.1C768.99 1921.56 766.97 1922.82 764.85 1922.82zM601.52 2042.8c-2.7 0-5.04-2.02-5.38-4.77-.36-2.98 1.75-5.68 4.73-6.05l207.53-25.41c3-.37 5.68 1.75 6.05 4.73.36 2.98-1.75 5.68-4.73 6.05l-207.53 25.41C601.97 2042.78 601.74 2042.8 601.52 2042.8zM761.84 2199.35c-.84 0-1.69-.2-2.49-.61-2.66-1.38-3.7-4.65-2.32-7.31l32.79-63.26c1.38-2.66 4.65-3.7 7.31-2.32 2.66 1.38 3.7 4.65 2.32 7.31l-32.79 63.26C765.7 2198.29 763.8 2199.35 761.84 2199.35z" class="color042c30 svgShape"/><path fill="#9d69fd" d="M2834.53 1087.51c-2 0-3.92-1.1-4.86-3.02l-31.73-63.97c-1.34-2.68-.24-5.94 2.45-7.27 2.68-1.33 5.95-.24 7.27 2.45l31.73 63.97c1.34 2.68.24 5.94-2.45 7.27C2836.16 1087.33 2835.34 1087.51 2834.53 1087.51zM2922.74 1023.54c-.99 0-1.99-.27-2.89-.84l-91.14-57.55c-2.53-1.6-3.29-4.95-1.69-7.49 1.61-2.53 4.96-3.28 7.49-1.69l91.14 57.55c2.53 1.6 3.29 4.95 1.69 7.49C2926.3 1022.64 2924.55 1023.54 2922.74 1023.54zM2853.12 907.46c-2.43 0-4.65-1.65-5.26-4.12-.72-2.91 1.05-5.85 3.96-6.57l67.82-16.87c2.9-.74 5.85 1.05 6.58 3.96.72 2.91-1.05 5.85-3.96 6.57l-67.82 16.87C2853.99 907.41 2853.55 907.46 2853.12 907.46z" class="color69c1fd svgShape"/><g><path fill="#300406" d="M2094.66,679.61c0,0-17.47-2.34-33.54,2.75c2.81-12.87-3.32-22.93-12.29-37.59     c-13.45-22-65.27,6.16-75.09,27.25c-8.04-26.16-86.23-65.75-162.31-55.67c-169.65,22.48-138.42,116.73-138.42,116.73     s-87.98,88.28-24.73,225.47c63.24,137.18,126.49,165.52,126.49,165.52l46.75-255.05c0,0,145.93-5.3,238.87-53.36     C2153.32,767.59,2094.66,679.61,2094.66,679.61z" class="color042c30 svgShape"/><path fill="#efa5da" d="M1676.14,954.42c8.84-23.83,35.13-39.87,60.36-36.83c0.2-29.12,2.25-58.54,10.9-86.35        c22.84-73.46,252.29-67.04,261.91-47.19c2.66,5.49,43.95,146.47,49.48,197.53c5.53,51.05-2.41,106.99-37.46,144.52        c-27.53,29.47-73.57,40.88-116.11,36.09c-19.11,57.86,40.59,48.25,51.47,80.87c-111.66,56.35-200.8,38.69-245.18,22.75        c7.66-51.95,51.79-103.01,49.69-244.04c-18.68,17.23-49.01,11.34-63.3-0.06C1678.01,1005.84,1667.3,978.24,1676.14,954.42z" class="colorefbca5 svgShape"/><path fill="#300406" d="M1908.31 866.58c.69-6.34-18.5-13.62-34.4-15.34-15.9-1.72-22.51 2.77-23.19 9.11-.69 6.34 4.81 12.14 20.71 13.86C1887.33 875.93 1907.62 872.93 1908.31 866.58zM1964.38 854.68c-.69-6.34 18.5-13.62 34.4-15.34 15.9-1.72 22.51 2.77 23.19 9.11.69 6.34-4.81 12.14-20.71 13.86C1985.35 864.03 1965.06 861.02 1964.38 854.68z" class="color042c30 svgShape"/><path fill="#ed85d0" d="M1883.33 955.56c.93 7.04 11.1 11.49 22.71 9.96 11.61-1.53 20.27-8.48 19.34-15.51-.93-7.03-11.1-11.49-22.71-9.95C1891.06 941.58 1882.4 948.53 1883.33 955.56zM1993.26 932.89c.93 7.03 11.1 11.49 22.71 9.96 11.61-1.54 20.27-8.48 19.34-15.51-.93-7.03-11.1-11.49-22.71-9.95C2000.99 918.92 1992.33 925.86 1993.26 932.89z" opacity=".5" class="coloreda585 svgShape"/><path fill="#300406" d="M1879.49 904.64c0 6.87 5.57 12.43 12.43 12.43 6.87 0 12.44-5.57 12.44-12.43 0-6.87-5.57-12.43-12.44-12.43C1885.06 892.21 1879.49 897.78 1879.49 904.64zM1987.03 896.45c0 6.87 5.57 12.43 12.43 12.43 6.87 0 12.44-5.57 12.44-12.43 0-6.87-5.57-12.43-12.44-12.43C1992.6 884.01 1987.03 889.58 1987.03 896.45z" class="color042c30 svgShape"/><path fill="#682bd7" d="M1804.11,1281.48c-49.13,0-85.56-7.9-88.42-8.54c-2.92-0.65-4.76-3.55-4.11-6.48        c0.65-2.93,3.53-4.76,6.48-4.11c1.32,0.29,133.79,28.94,236.13-24.12c2.68-1.38,5.94-0.34,7.32,2.32        c1.38,2.66,0.34,5.94-2.32,7.32C1907.84,1274.48,1850.35,1281.48,1804.11,1281.48z" class="color26aaff svgShape"/><path fill="#300406" d="M1723.75,892.21c0,0,1.8,26.9,25.35,37.91c23.55,11,11.98-47.51,29.34-82.24       c17.36-34.72,67.31-41.73,129.88-32.79c45.03,6.43,51.95-30.22,78.71-9.65c26.76,20.58,37.78,29.74,48.35,11.44       c15.39-26.67-2.15-71.24-91.29-71.24C1854.97,745.64,1719.86,779,1723.75,892.21z" class="color042c30 svgShape"/><path fill="#f449c4" d="M2084.19,903.65c-2.95-37.22-32.84-67.23-67.05-67.01c-15.64,0.12-30.14,6.61-40.81,18.25      c-7.52,8.21-12.68,18.55-15.11,29.86c-12.47-23.65-35.91-39.95-61.6-39.95c-0.16,0-0.32,0-0.48,0      c-16.6,0.13-31.98,7.02-43.31,19.37c-12.73,13.89-19.11,33.55-17.5,53.93c3.12,39.4,34.8,71.25,70.76,71.24      c0.16,0,0.33,0,0.49,0c16.6-0.13,31.98-7.01,43.31-19.37c8.37-9.13,13.93-20.78,16.34-33.46      c11.92,21.47,33.57,36.13,57.22,36.13c0.15,0,0.31,0,0.46,0c15.64-0.13,30.14-6.61,40.81-18.26      C2079.71,941.32,2085.71,922.82,2084.19,903.65z M1942.49,960.45c-8.66,9.44-20.38,14.7-33.02,14.8c-0.13,0-0.26,0-0.38,0      c-28.75,0-54.14-26.05-56.69-58.25c-1.31-16.49,3.73-32.27,13.83-43.28c8.65-9.44,20.38-14.7,33.02-14.8c0.13,0,0.25,0,0.38,0      c28.75,0,54.14,26.05,56.69,58.26C1957.62,933.66,1952.58,949.43,1942.49,960.45z M2057.32,944.86      c-8,8.73-18.84,13.59-30.52,13.68c-0.12,0-0.24,0-0.35,0c-26.63,0-50.15-24.15-52.52-54.02c-1.21-15.29,3.45-29.9,12.81-40.1      c8-8.73,18.84-13.58,30.52-13.68c0.12,0,0.24,0,0.35,0c26.63,0,50.15,24.15,52.52,54.01      C2071.34,920.04,2066.67,934.66,2057.32,944.86z" class="colorf45d49 svgShape"/><g fill="none"><path fill="#5b2629" d="M2017.63 809.45c-1.41 0-2.79-.09-4.12-.29-2.96-.43-5.02-3.18-4.59-6.15.43-2.97 3.21-5.01 6.15-4.59 15.24 2.19 39.49-14.02 55.19-36.93 7.43-10.85 23.17-38.81 8.91-64.11-1.47-2.61-.55-5.92 2.06-7.39 2.61-1.47 5.92-.55 7.39 2.06 12.15 21.55 8.72 49.1-9.41 75.57C2062.32 792.27 2036.68 809.45 2017.63 809.45zM1976.88 703.35c-2.4 0-4.59-1.6-5.24-4.02-.78-2.9.94-5.87 3.84-6.65 13.56-3.63 21.97-15.68 29.38-26.31 6.86-9.84 12.79-18.33 21.97-19.29 5.59-.61 11.24 1.85 17.24 7.46 2.19 2.05 2.3 5.48.26 7.67-2.05 2.19-5.48 2.3-7.67.26-3.52-3.29-6.46-4.86-8.69-4.6-4.26.45-9.09 7.37-14.21 14.71-8.06 11.55-18.09 25.93-35.47 30.58C1977.81 703.29 1977.34 703.35 1976.88 703.35zM1750 917.39c-2.7 0-5.05-2.02-5.38-4.77-3.27-26.89-15.38-49.23-33.24-61.29-11.59-7.83-24.72-10.32-36.97-7.04-2.91.79-5.87-.94-6.65-3.84-.78-2.9.94-5.87 3.84-6.65 15.34-4.1 31.62-1.08 45.85 8.53 20.46 13.82 34.29 38.96 37.94 68.98.36 2.98-1.76 5.68-4.73 6.04C1750.44 917.38 1750.22 917.39 1750 917.39zM1798.62 805.78c-2.52 0-4.77-1.76-5.31-4.32-6.89-33.16-24.97-60.92-47.2-72.43-13.9-7.2-28.21-7.69-42.56-1.46-2.76 1.21-5.94-.07-7.14-2.81s.07-5.95 2.81-7.14c17.25-7.49 35.18-6.87 51.88 1.78 25.05 12.98 45.3 43.59 52.83 79.87.61 2.93-1.27 5.81-4.21 6.41C1799.36 805.75 1798.98 805.78 1798.62 805.78zM1925.31 786.98c-.4 0-.8-.04-1.2-.13-2.93-.66-4.76-3.57-4.1-6.49 8.32-36.82 13.2-86.8-10.79-115.84-14.28-17.28-37.7-25.52-69.5-24.51-3.04.15-5.5-2.25-5.6-5.25-.1-2.99 2.25-5.5 5.25-5.6 35.3-1.17 61.69 8.44 78.21 28.45 21.2 25.67 25.7 68.95 13.01 125.14C1930.03 785.27 1927.79 786.98 1925.31 786.98zM1847.83 792.31c-.34 0-.69-.03-1.04-.1-2.94-.57-4.86-3.42-4.29-6.36 10.91-56.1-9.56-96.97-32.36-116.52-18.56-15.91-40.51-20.46-61.82-12.8-2.83 1.02-5.93-.45-6.94-3.27-1.01-2.82.45-5.93 3.27-6.94 24.77-8.91 51.22-3.52 72.55 14.77 32.04 27.48 45.81 76.07 35.94 126.83C1852.65 790.51 1850.38 792.31 1847.83 792.31z" class="color384d54 svgShape"/></g><path fill="#300406" d="M1956.03 1101.67c-31 0-51.72-26.1-51.99-26.45-1.84-2.37-1.41-5.78.96-7.61 2.36-1.84 5.77-1.41 7.61.96 1.3 1.66 31.07 38.79 71.54 13.4 2.54-1.6 5.89-.83 7.48 1.71 1.59 2.54.82 5.89-1.71 7.48C1977.74 1098.8 1966.32 1101.67 1956.03 1101.67zM1926.57 1168.27c-45.43 0-71.71-22.66-73.26-24.03-2.24-1.99-2.45-5.42-.46-7.66 1.98-2.24 5.41-2.45 7.65-.47l0 0c2 1.76 50.03 42.71 130.44 6.17 2.73-1.24 5.94-.03 7.19 2.7 1.24 2.73.03 5.95-2.7 7.19C1969.23 1164.07 1946.13 1168.27 1926.57 1168.27zM1967.94 987.73c-2.37 0-4.54-1.56-5.22-3.95-.81-2.88.86-5.88 3.75-6.7 4.72-1.33 10.55-3.8 11.59-7.96 1.34-5.39-4.86-13.5-8.08-16.58-2.16-2.07-2.24-5.51-.16-7.67 2.07-2.17 5.51-2.23 7.67-.16 1.47 1.41 14.31 14.17 11.1 27.04-1.84 7.4-8.3 12.71-19.17 15.78C1968.92 987.66 1968.43 987.73 1967.94 987.73zM1694.34 991.16c-1.89 0-3.73-.99-4.73-2.75-6.53-11.53-7.71-22.05-3.52-31.25 7.9-17.36 32.25-22.52 33.28-22.73 2.91-.59 5.79 1.29 6.4 4.22.6 2.93-1.28 5.8-4.21 6.41-.2.04-20.01 4.29-25.6 16.62-2.65 5.86-1.61 13.05 3.1 21.38 1.48 2.61.56 5.92-2.05 7.4C1696.16 990.94 1695.25 991.16 1694.34 991.16z" class="color042c30 svgShape"/></g><g><path fill="#5b2629" d="M1717.55,1275.26c0,8.81-7.14,15.94-15.94,15.94s-15.94-7.14-15.94-15.94c0-8.81,7.14-15.94,15.94-15.94     S1717.55,1266.45,1717.55,1275.26z" class="color384d54 svgShape"/><path fill="#f4e4f0" d="M1658.07,1589.9c-2.31,0-4.45-1.49-5.17-3.81c-19.54-62.39,1.09-75.26,27.2-91.56      c18.41-11.49,41.32-25.79,57.77-63.3c38.12-86.94-35.66-152.59-38.82-155.35c-2.26-1.97-2.5-5.39-0.53-7.65      c1.97-2.26,5.39-2.51,7.65-0.54c0.83,0.72,83,73.57,41.64,167.89c-17.79,40.58-42.28,55.87-61.96,68.15      c-25.55,15.94-39.63,24.73-22.6,79.11c0.9,2.86-0.69,5.9-3.56,6.8C1659.15,1589.82,1658.61,1589.9,1658.07,1589.9z" class="colorf4e9e4 svgShape"/><circle cx="1648.61" cy="1576" r="20.12" fill="#300406" class="color042c30 svgShape"/></g><g><path fill="#5b2629" d="M2011.87,1244.34c3.61,8.03,0.02,17.47-8.01,21.08c-8.03,3.61-17.47,0.02-21.08-8.01     c-3.61-8.03-0.02-17.47,8.01-21.08C1998.82,1232.72,2008.26,1236.31,2011.87,1244.34z" class="color384d54 svgShape"/><path fill="#f4e4f0" d="M2092.05,1651.04c-0.76,0-1.53-0.16-2.26-0.5c-2.72-1.25-3.92-4.47-2.67-7.2     c11.32-24.68-10.37-43.01-46.69-70.86c-44.3-33.97-99.43-76.24-75.44-153.33c27.92-89.72,27.1-167.51,27.08-168.28     c-0.05-3,2.35-5.46,5.34-5.51c3.08,0.08,5.46,2.35,5.51,5.34c0.01,0.79,0.85,80.32-27.58,171.67     c-21.74,69.86,27.89,107.92,71.68,141.49c33.66,25.81,65.46,50.19,49.95,83.99C2096.07,1649.86,2094.1,1651.04,2092.05,1651.04z" class="colorf4e9e4 svgShape"/><path fill="#300406" d="M2111.43,1636.9c4.55,10.13,0.03,22.04-10.11,26.59c-10.13,4.55-22.04,0.03-26.59-10.11     c-4.55-10.13-0.03-22.04,10.11-26.59C2094.97,1622.24,2106.88,1626.77,2111.43,1636.9z" class="color042c30 svgShape"/></g><g><path fill="#ed7ece" d="M2304.34,1348.22c-1.39,0-2.78-0.53-3.84-1.59c-2.12-2.12-2.12-5.55,0-7.67l61.31-61.32    c2.12-2.12,5.55-2.12,7.67,0c2.12,2.12,2.12,5.55,0,7.67l-61.31,61.32C2307.12,1347.69,2305.73,1348.22,2304.34,1348.22z" class="colored897e svgShape"/><path fill="#ed7ece" d="M2365.66,1348.22c-1.39,0-2.78-0.53-3.84-1.59l-61.31-61.32c-2.12-2.12-2.12-5.55,0-7.67    c2.12-2.12,5.55-2.12,7.67,0l61.31,61.32c2.12,2.12,2.12,5.55,0,7.67C2368.43,1347.69,2367.04,1348.22,2365.66,1348.22z" class="colored897e svgShape"/></g><path fill="#ed7ece" d="M1256.94 893.59c-23.05 0-41.81-18.75-41.81-41.81s18.75-41.81 41.81-41.81c23.05 0 41.81 18.75 41.81 41.81S1280 893.59 1256.94 893.59zM1256.94 820.83c-17.07 0-30.95 13.89-30.95 30.95 0 17.07 13.89 30.95 30.95 30.95 17.07 0 30.95-13.89 30.95-30.95C1287.9 834.72 1274.01 820.83 1256.94 820.83zM3027.32 1978.55c-23.05 0-41.81-18.75-41.81-41.81s18.75-41.81 41.81-41.81c23.05 0 41.81 18.75 41.81 41.81S3050.37 1978.55 3027.32 1978.55zM3027.32 1905.79c-17.07 0-30.95 13.89-30.95 30.95s13.88 30.95 30.95 30.95c17.07 0 30.95-13.89 30.95-30.95S3044.38 1905.79 3027.32 1905.79zM785.64 1691.7c0 17.34-14.06 31.4-31.4 31.4-17.34 0-31.4-14.06-31.4-31.4 0-17.34 14.06-31.4 31.4-31.4C771.58 1660.3 785.64 1674.36 785.64 1691.7z" class="colored897e svgShape"/><g><circle cx="1292.44" cy="1096.7" r="86.11" fill="#f294d8" transform="rotate(-85.314 1292.381 1096.655)" class="colorf29b94 svgShape"/><path fill="#bd2e95" d="M1269 1181.35c-.16 0-.32-.02-.48-.07-12.18-3.44-23.71-9.64-33.35-17.93-.74-.64-.82-1.75-.19-2.49.64-.74 1.75-.82 2.49-.19 9.25 7.96 20.32 13.91 32.01 17.21.94.26 1.48 1.24 1.22 2.18C1270.48 1180.84 1269.77 1181.35 1269 1181.35zM1292.44 1184.58c-.97 0-1.77-.79-1.77-1.76 0-.97.79-1.77 1.77-1.77 46.51 0 84.35-37.84 84.35-84.35 0-10.78-2.01-21.28-5.96-31.2-.36-.91.08-1.93.99-2.29.9-.36 1.93.08 2.29.99 4.12 10.34 6.21 21.28 6.21 32.51C1380.32 1145.16 1340.9 1184.58 1292.44 1184.58z" class="colorf07364 svgShape"/><path fill="#efcee6" d="M1278.97 1166.89c-.16 0-.32-.02-.48-.07-9.08-2.56-17.69-7.19-24.88-13.37-.74-.64-.82-1.75-.19-2.49.64-.74 1.75-.82 2.49-.19 6.8 5.85 14.94 10.23 23.53 12.65.94.27 1.48 1.24 1.22 2.18C1280.44 1166.38 1279.74 1166.89 1278.97 1166.89zM1296.33 1169.28c-.97 0-1.76-.79-1.76-1.77 0-.98.79-1.77 1.76-1.77 34.2 0 62.02-27.82 62.02-62.02 0-7.93-1.47-15.65-4.38-22.94-.36-.91.08-1.93.99-2.29.91-.36 1.93.08 2.29.99 3.07 7.71 4.63 15.87 4.63 24.25C1361.87 1139.88 1332.47 1169.28 1296.33 1169.28zM1230.51 1119.69c-.7 0-1.37-.42-1.64-1.11-3.07-7.72-4.63-15.87-4.63-24.25 0-36.14 29.4-65.54 65.55-65.54.98 0 1.77.79 1.77 1.76 0 .97-.79 1.76-1.77 1.76-34.2 0-62.02 27.82-62.02 62.02 0 7.93 1.47 15.64 4.38 22.94.36.91-.08 1.93-.99 2.29C1230.94 1119.65 1230.72 1119.69 1230.51 1119.69z" class="colorefd0ce svgShape"/><g fill="none"><path fill="#ed7ece" d="M1292.21,1131.61v-0.64c-0.1-0.48-0.15-1.35-0.15-2.63l-0.15-2.63l-2.76,0.08c-3.69,0-6.86-0.35-9.52-1.04     c-1.64-0.48-2.46-1.04-2.46-1.67c0-0.64,0.28-1.16,0.84-1.55c0.56-0.4,1.41-0.6,2.53-0.6c1.12,0,2.66,0.21,4.61,0.64     c1.94,0.43,3.28,0.64,3.99,0.64c0.61,0,1.43-0.05,2.46-0.16l-1.38-23.19l-0.31-4.94c-6.45-4.57-10.88-8.06-13.28-10.48     c-2.41-2.42-3.61-5.03-3.61-7.85c0-2.23,1.36-4.4,4.07-6.5c2.71-2.1,6.42-3.71,11.13-4.82l-0.15-2.79c0-1.43,0.66-2.15,2-2.15     c0.92,0,1.71,0.29,2.38,0.88c0.67,0.59,1,1.3,1,2.15v1.04c3.48-0.42,6.6-0.64,9.37-0.64c1.84,0,3.63,0.28,5.38,0.84     c1.74,0.56,2.97,1.26,3.69,2.11l-2.61,1.67c-1.43,0-3.22-0.11-5.37-0.32c-2.66-0.16-4.61-0.24-5.84-0.24     c-1.43,0-2.87,0.08-4.3,0.24l2.15,25.03c2.46,1.65,4.43,3.04,5.91,4.19c1.48,1.14,3.09,2.51,4.84,4.1     c3.28,3.24,4.91,6.7,4.91,10.36c0,2.87-1.08,5.58-3.22,8.13c-2.15,2.55-5.17,4.41-9.06,5.58v6.06c0,2.39-1.49,3.59-4.45,3.59     C1293.08,1134.08,1292.21,1133.26,1292.21,1131.61z M1289.45,1084.67c-0.31-3.56-0.61-9.03-0.92-16.42     c-2.56,0.85-4.56,1.91-5.99,3.19c-1.43,1.27-2.15,2.5-2.15,3.67c0,2.07,0.77,4.09,2.3,6.06c1.54,1.97,3.84,4.09,6.91,6.38     L1289.45,1084.67z M1302.81,1115.27c1.13-1.75,1.69-3.29,1.69-4.62c0-3.61-2.66-7.54-7.99-11.8l1.84,20.8     C1300.2,1118.49,1301.68,1117.03,1302.81,1115.27z" class="colored897e svgShape"/></g></g><g><path fill="#ed7ece" d="M2594.8,1557.11c-10.73,25.38-49.77,35.52-87.18,22.63c-37.41-12.89-59.04-43.91-48.3-69.29     c10.73-25.38,49.77-35.51,87.18-22.63C2583.91,1500.7,2605.54,1531.73,2594.8,1557.11z" class="colored897e svgShape"/><path fill="#f294d8" d="M2597.36,1547.83c-10.74,25.38-49.77,35.51-87.18,22.63c-37.41-12.89-59.04-43.91-48.3-69.29     c10.74-25.38,49.77-35.51,87.18-22.63C2586.46,1491.42,2608.09,1522.44,2597.36,1547.83z" class="colorf29b94 svgShape"/><path fill="#bd2e95" d="M2492.06 1563.32c-.12-.04-.25-.1-.36-.17-8.8-5.14-16.48-11.57-22.19-18.61-.44-.54-.25-1.16.41-1.38.67-.22 1.56.04 2 .58 5.48 6.76 12.85 12.93 21.3 17.86.68.4.89 1.06.47 1.49C2493.34 1563.45 2492.67 1563.53 2492.06 1563.32zM2509.78 1571.4c-.77-.26-1.21-.9-.99-1.42.22-.52 1.02-.73 1.79-.46 36.59 12.6 74.89 2.66 85.39-22.17 2.43-5.75 3.23-11.9 2.36-18.27-.08-.58.5-1.01 1.29-.96.79.05 1.5.57 1.58 1.15.91 6.64.08 13.04-2.45 19.04C2587.81 1574.17 2547.9 1584.53 2509.78 1571.4z" class="colorf07364 svgShape"/><path fill="#efcee6" d="M2503.17 1558.31c-.12-.04-.25-.1-.36-.17-6.57-3.83-12.29-8.63-16.55-13.88-.44-.54-.25-1.16.41-1.38.67-.22 1.56.04 2 .57 4.03 4.97 9.45 9.51 15.66 13.13.68.4.89 1.06.47 1.49C2504.45 1558.43 2503.78 1558.51 2503.17 1558.31zM2516.29 1564.29c-.77-.26-1.21-.9-.99-1.42.22-.52 1.02-.73 1.79-.46 26.9 9.27 55.07 1.95 62.78-16.3 1.79-4.23 2.37-8.75 1.73-13.43-.08-.58.5-1.01 1.29-.96.8.05 1.5.57 1.58 1.15.68 4.95.06 9.73-1.83 14.2C2574.49 1566.35 2544.72 1574.08 2516.29 1564.29zM2475.7 1519.98c-.55-.19-.98-.59-1.04-1.04-.68-4.95-.06-9.73 1.83-14.2 8.16-19.29 37.93-27.02 66.36-17.23.77.27 1.21.9.99 1.42-.22.52-1.02.73-1.79.46-26.9-9.27-55.07-1.96-62.78 16.3-1.79 4.23-2.37 8.75-1.73 13.43.08.58-.5 1.01-1.29.96C2476.05 1520.08 2475.87 1520.04 2475.7 1519.98z" class="colorefd0ce svgShape"/><g fill="none"><path fill="#ed7ece" d="M2521.55,1543.06l0.14-0.34c0.03-0.28,0.18-0.76,0.47-1.45l0.47-1.45l-2.19-0.71c-2.9-1-5.32-2.04-7.26-3.13     c-1.18-0.7-1.7-1.22-1.56-1.56c0.14-0.34,0.48-0.54,1.02-0.6c0.53-0.06,1.24,0.06,2.13,0.37c0.89,0.31,2.04,0.84,3.48,1.59     c1.43,0.75,2.43,1.23,3,1.42c0.48,0.17,1.14,0.36,1.97,0.58l4.15-12.76l0.87-2.72c-4.04-4.19-6.74-7.25-8.08-9.19     c-1.35-1.94-1.7-3.66-1.07-5.17c0.5-1.19,2.06-1.98,4.67-2.36c2.61-0.39,5.89-0.24,9.85,0.44l0.51-1.53     c0.32-0.77,1.01-0.97,2.06-0.61c0.73,0.25,1.28,0.62,1.67,1.11c0.39,0.49,0.49,0.97,0.3,1.42l-0.23,0.55     c2.83,0.72,5.34,1.45,7.51,2.2c1.45,0.5,2.8,1.13,4.04,1.9c1.24,0.77,2.05,1.48,2.42,2.12l-2.43,0.19     c-1.13-0.39-2.51-0.93-4.16-1.63c-2.06-0.81-3.57-1.38-4.54-1.71c-1.13-0.39-2.27-0.73-3.44-1.04l-3.96,13.94     c1.56,1.55,2.8,2.82,3.71,3.84c0.91,1.01,1.87,2.18,2.88,3.5c1.85,2.62,2.36,4.91,1.53,6.86c-0.65,1.53-2.11,2.69-4.37,3.46     c-2.27,0.78-5.06,0.95-8.39,0.52l-1.37,3.23c-0.54,1.28-1.98,1.51-4.31,0.71C2521.68,1544.62,2521.18,1543.94,2521.55,1543.06z      M2529.97,1517.26c0.56-1.98,1.56-4.99,2.98-9.01c-2.21-0.24-4.02-0.21-5.43,0.08c-1.42,0.29-2.25,0.75-2.52,1.37     c-0.47,1.11-0.32,2.39,0.44,3.86c0.76,1.47,2.1,3.22,4,5.28L2529.97,1517.26z M2533.58,1537.21c1.28-0.63,2.07-1.3,2.37-2.01     c0.81-1.93-0.39-4.75-3.62-8.46l-3.25,11.6C2530.8,1538.22,2532.29,1537.85,2533.58,1537.21z" class="colored897e svgShape"/></g></g></svg>